<?xml version="1.0" standalone="no"?>
<!DOCTYPE svg PUBLIC "-//W3C//DTD SVG 20010904//EN"
 "http://www.w3.org/TR/2001/REC-SVG-20010904/DTD/svg10.dtd">
<svg version="1.0" xmlns="http://www.w3.org/2000/svg"
 width="88.000000pt" height="94.000000pt" viewBox="0 0 88.000000 94.000000"
 preserveAspectRatio="xMidYMid meet">

<g transform="translate(0.000000,94.000000) scale(0.100000,-0.100000)"
fill="#000000" stroke="none">
<path d="M480 880 c0 -13 -7 -20 -20 -20 -19 0 -20 -7 -20 -130 0 -123 -1
-130 -20 -130 -13 0 -20 -7 -20 -20 0 -16 -7 -20 -30 -20 -23 0 -30 -4 -30
-20 0 -16 -7 -20 -30 -20 -23 0 -30 -4 -30 -20 0 -13 -7 -20 -20 -20 -13 0
-20 -7 -20 -20 0 -17 -7 -20 -40 -20 -33 0 -40 3 -40 20 0 13 -7 20 -20 20
-13 0 -20 7 -20 20 0 13 -7 20 -20 20 -17 0 -20 7 -20 40 0 33 -3 40 -20 40
-19 0 -20 -7 -20 -120 0 -113 1 -120 20 -120 13 0 20 -7 20 -20 0 -13 7 -20
20 -20 13 0 20 -7 20 -20 0 -13 7 -20 20 -20 13 0 20 -7 20 -20 0 -13 7 -20
20 -20 13 0 20 -7 20 -20 0 -13 7 -20 20 -20 18 0 20 -7 20 -80 l0 -80 40 0
c33 0 40 3 40 20 0 13 -7 20 -20 20 -13 0 -20 7 -20 20 0 13 7 20 20 20 13 0
20 7 20 20 0 13 7 20 20 20 13 0 20 7 20 20 0 13 7 20 20 20 13 0 20 -7 20
-20 0 -13 7 -20 20 -20 18 0 20 -7 20 -60 l0 -60 40 0 c33 0 40 3 40 20 0 13
-7 20 -20 20 -18 0 -20 7 -20 80 0 73 2 80 20 80 13 0 20 7 20 20 0 13 7 20
20 20 16 0 20 7 20 30 0 23 4 30 20 30 18 0 20 7 20 70 0 63 2 70 20 70 13 0
20 -7 20 -20 0 -13 7 -20 20 -20 17 0 20 7 20 40 l0 40 -40 0 -40 0 0 40 0 40
80 0 c73 0 80 2 80 20 0 18 -7 20 -60 20 -53 0 -60 2 -60 20 0 19 7 20 100 20
l100 0 0 90 c0 83 -1 90 -20 90 -13 0 -20 7 -20 20 0 19 -7 20 -160 20 -153 0
-160 -1 -160 -20z m80 -60 c0 -13 -7 -20 -20 -20 -13 0 -20 7 -20 20 0 13 7
20 20 20 13 0 20 -7 20 -20z"/>
</g>
</svg>
